<svg xmlns="http://www.w3.org/2000/svg" viewBox="0 0 619.34 477.33"><defs><style>.cls-1{fill:#1a1a1a;}</style></defs><g id="Layer_2" data-name="Layer 2"><g id="Layer_1-2" data-name="Layer 1"><path d="M190.32,453h9.09c6.17,0,9.92,3.13,9.92,8.33a7.56,7.56,0,0,1-5.55,7.64l5.94,8.32H206.9l-5.55-7.8a17.49,17.49,0,0,1-1.94.1h-6.52v7.7h-2.57Zm9,14.4c4.86,0,7.42-2.25,7.42-6.07s-2.56-6.11-7.42-6.11h-6.45v12.18Z"/><path d="M250.38,453h2.53L264,477.33h-2.7l-2.88-6.49H244.86l-2.92,6.49h-2.67Zm7.11,15.72-5.87-13.05-5.83,13.05Z"/><path d="M291.87,453h2.64l7,20.89L308.77,453h2.39l7.15,21,7.12-21h2.46l-8.19,24.29H317l-7.11-20.68-7.15,20.68h-2.67Z"/><path d="M360.32,453H377v2.22H362.89v8.64h12.56v2.19H362.89v9H377.5v2.22H360.32Z"/><path d="M416.77,468.93,407.06,453h2.74l8.33,13.61L426.45,453H429l-9.71,15.89v8.4h-2.54Z"/><rect class="cls-1" x="557.68" y="12.07" width="51.83" height="5.1" transform="translate(1.62 60.53) rotate(-5.95)"/><path class="cls-1" d="M265.34,23.89a13.28,13.28,0,0,0,11.12,5.36A16.18,16.18,0,0,0,288,24.72c2.89-2.89,4.12-6.59,4.12-11.12V0H284.7V18.54a6.62,6.62,0,0,1-2.47,5.35,8.14,8.14,0,0,1-5.77,2.48,5.86,5.86,0,0,1-4.94-2.48A6.62,6.62,0,0,1,269,18.54V0h-7.82V18.54a7.83,7.83,0,0,1-2.06,5.35,8.14,8.14,0,0,1-5.77,2.48h-7V0h-7.83V29.25h14.83C258.33,29.25,262.45,27.6,265.34,23.89Z"/><path class="cls-1" d="M145.19,366.53c-19,0-19.36,28.84,0,28.84S164.55,366.53,145.19,366.53Z"/><path class="cls-1" d="M176.5,366.53c-19,0-19.37,28.84,0,28.84S195.86,366.53,176.5,366.53Z"/><path class="cls-1" d="M307.4,57.57H238.56V306c0,17.71-16.89,37.9-40.79,37.9H82c-23.9,0-40.78-20.19-40.78-37.9V73.63c0-10.71,10.29-14.42,20.59-14.42V57.56H0V306c0,15.65,39.55,40,82,40H197.77c42.43,0,82-24.31,82-40V73.63c0-10.69,10.25-14.4,20.53-14.42-11.61,6.1-9.52,27.19,7,27.19C326.65,86.4,326.68,57.65,307.4,57.57Z"/><path class="cls-1" d="M531.39,56.15H436.64c-142.95,0-152.84,288.37,8.24,288.37H469.6c0,20.19-16.89,43.26-35.84,43.26l-4.95,2.88c42.44,0,82-28,82-46.14V74.68c0-12.35,10.3-16.47,20.59-16.47ZM465.47,342.46h-14c-105.88,0-125.65-284.25-8.24-284.25h22.24Z"/><path class="cls-1" d="M557.54,56.15V344.52c0,20.19-16.89,43.26-35.84,43.26l-4.94,2.88c42.43,0,82-28,82-46.14V74.68c0-12.35,10.3-16.47,20.6-16.47V56.15Z"/></g></g></svg>